<svg
    xmlns="http://www.w3.org/2000/svg"
    width="20"
    height="20"
    viewBox="0 0 20 20"
    fill="none"
     >
    <path
    d="M14.4539 13.4037L14.0598 13.8951L14.507 14.3387L17.5912 17.3979C17.6135 17.4224 17.6258 17.4543 17.6258 17.4875C17.6258 17.5206 17.6135 17.5524 17.5914 17.5769C17.5797 17.5879 17.5661 17.5967 17.5513 17.6029L17.5513 17.6029C17.535 17.6097 17.5176 17.6132 17.5 17.6132C17.4824 17.6132 17.465 17.6097 17.4487 17.6029L17.4487 17.6029C17.4325 17.5962 17.4177 17.5862 17.4053 17.5737L17.4033 17.5717L14.3366 14.505L13.8931 14.0615L13.4037 14.4539C12.047 15.542 10.325 16.0689 8.5918 15.9264C6.85855 15.7838 5.24581 14.9826 4.08517 13.6874C2.92453 12.3923 2.30422 10.7017 2.35179 8.96326C2.39936 7.22482 3.1112 5.57067 4.34092 4.34094C5.57065 3.11121 7.2248 2.39938 8.96325 2.35181C10.7017 2.30424 12.3923 2.92455 13.6874 4.08518C14.9826 5.24582 15.7838 6.85857 15.9264 8.59181C16.0689 10.3251 15.542 12.0471 14.4539 13.4037ZM5.53694 14.5989C6.61134 15.3168 7.87449 15.7 9.16666 15.7C10.8994 15.7 12.5612 15.0117 13.7864 13.7864C15.0117 12.5612 15.7 10.8994 15.7 9.16668C15.7 7.87451 15.3168 6.61135 14.5989 5.53695C13.881 4.46255 12.8607 3.62516 11.6669 3.13067C10.4731 2.63617 9.15942 2.50679 7.89207 2.75888C6.62473 3.01097 5.4606 3.63321 4.5469 4.54691C3.6332 5.46062 3.01096 6.62475 2.75887 7.89209C2.50678 9.15943 2.63616 10.4731 3.13065 11.6669C3.62514 12.8607 4.46254 13.8811 5.53694 14.5989Z"
    fill="black"
    stroke="#121212"
    stroke-width="1.4"
    />
</svg>